<svg xmlns="http://www.w3.org/2000/svg" width="96" height="96" viewBox="0 0 96 96"><defs><radialGradient id="g" cx="30%" cy="20%"><stop offset="0" stop-color="#9fd6ff"/><stop offset=".55" stop-color="#318cff"/><stop offset="1" stop-color="#1350b8"/></radialGradient></defs><path d="M19 38c0-15 13-25 29-23 15-5 30 5 32 20 12 8 14 25 4 36-8 14-29 17-41 8-15 4-31-8-30-24-3-7-1-13 6-17z" fill="url(#g)" stroke="#0e3f8e" stroke-width="5"/><path d="M29 22c4-10 13-15 22-15-1 8 1 13 7 18z" fill="#65b6ff" stroke="#0e3f8e" stroke-width="4"/><ellipse cx="36" cy="47" rx="12" ry="15" fill="#fff"/><ellipse cx="61" cy="47" rx="12" ry="15" fill="#fff"/><circle cx="39" cy="51" r="5" fill="#182744"/><circle cx="58" cy="51" r="5" fill="#182744"/><path d="M35 67c8 5 18 5 26 0" fill="none" stroke="#163e79" stroke-width="5" stroke-linecap="round"/><ellipse cx="31" cy="31" rx="10" ry="5" fill="#d9efff" opacity=".6"/></svg>